<svg width="25" height="25" viewBox="0 0 25 25" fill="none" xmlns="http://www.w3.org/2000/svg">
<circle cx="12.5" cy="12.5" r="12.5" fill="white"/>
<path d="M12.3549 5C12.6221 5 12.8387 5.21664 12.8387 5.48387V11.2439C12.6895 11.2284 12.538 11.2205 12.3846 11.2205C12.2108 11.2205 12.0394 11.2306 11.871 11.2504V5.48385C11.871 5.21661 12.0876 5 12.3549 5Z" fill="#4B50AC"/>
<path d="M12.3549 11.7742C10.3061 11.7742 8.64517 13.4351 8.64517 15.4839V15.7065L16.0646 15.7066L16.0645 15.4839C16.0645 13.4351 14.4037 11.7742 12.3549 11.7742Z" fill="#4B50AC"/>
<path d="M8.00939 19.4213L8.55877 16.6743L16.151 16.6743L16.7003 19.4213C16.7288 19.5634 16.692 19.7108 16.6 19.8229C16.5082 19.9351 16.3708 20.0001 16.2259 20L8.48383 20C8.33891 20.0001 8.20156 19.9351 8.10965 19.8229C8.01776 19.7108 7.98095 19.5634 8.00939 19.4213Z" fill="#4B50AC"/>
</svg>
